<svg width="290" height="83" viewBox="0 0 290 83" fill="none" xmlns="http://www.w3.org/2000/svg">
<path d="M37.9645 4.94975C39.9171 2.99713 43.0829 2.99713 45.0355 4.94975L78.0502 37.9645C80.0029 39.9171 80.0029 43.0829 78.0503 45.0355L45.0355 78.0502C43.0829 80.0029 39.9171 80.0029 37.9645 78.0503L4.94975 45.0355C2.99713 43.0829 2.99713 39.9171 4.94975 37.9645L37.9645 4.94975Z" stroke="#00FFF0" stroke-width="2"/>
<path d="M23.056 40.736C23.056 38.5173 23.536 36.544 24.496 34.816C25.456 33.0667 26.7893 31.712 28.496 30.752C30.224 29.7707 32.176 29.28 34.352 29.28C37.0187 29.28 39.3013 29.984 41.2 31.392C43.0987 32.8 44.368 34.72 45.008 37.152H38.992C38.544 36.2133 37.904 35.4987 37.072 35.008C36.2613 34.5173 35.3333 34.272 34.288 34.272C32.6027 34.272 31.2373 34.8587 30.192 36.032C29.1467 37.2053 28.624 38.7733 28.624 40.736C28.624 42.6987 29.1467 44.2667 30.192 45.44C31.2373 46.6133 32.6027 47.2 34.288 47.2C35.3333 47.2 36.2613 46.9547 37.072 46.464C37.904 45.9733 38.544 45.2587 38.992 44.32H45.008C44.368 46.752 43.0987 48.672 41.2 50.08C39.3013 51.4667 37.0187 52.16 34.352 52.16C32.176 52.16 30.224 51.68 28.496 50.72C26.7893 49.7387 25.456 48.384 24.496 46.656C23.536 44.928 23.056 42.9547 23.056 40.736ZM57.767 52.256C56.0177 52.256 54.439 51.8827 53.031 51.136C51.6443 50.3893 50.5457 49.3227 49.735 47.936C48.9457 46.5493 48.551 44.928 48.551 43.072C48.551 41.2373 48.9563 39.6267 49.767 38.24C50.5777 36.832 51.687 35.7547 53.095 35.008C54.503 34.2613 56.0817 33.888 57.831 33.888C59.5803 33.888 61.159 34.2613 62.567 35.008C63.975 35.7547 65.0843 36.832 65.895 38.24C66.7057 39.6267 67.111 41.2373 67.111 43.072C67.111 44.9067 66.695 46.528 65.863 47.936C65.0523 49.3227 63.9323 50.3893 62.503 51.136C61.095 51.8827 59.5163 52.256 57.767 52.256ZM57.767 47.52C58.8123 47.52 59.6977 47.136 60.423 46.368C61.1697 45.6 61.543 44.5013 61.543 43.072C61.543 41.6427 61.1803 40.544 60.455 39.776C59.751 39.008 58.8763 38.624 57.831 38.624C56.7643 38.624 55.879 39.008 55.175 39.776C54.471 40.5227 54.119 41.6213 54.119 43.072C54.119 44.5013 54.4603 45.6 55.143 46.368C55.847 47.136 56.7217 47.52 57.767 47.52ZM70.206 43.04C70.206 41.2053 70.5473 39.5947 71.23 38.208C71.934 36.8213 72.8833 35.7547 74.078 35.008C75.2727 34.2613 76.606 33.888 78.078 33.888C79.2513 33.888 80.318 34.1333 81.278 34.624C82.2593 35.1147 83.0273 35.776 83.582 36.608V28.32H89.054V52H83.582V49.44C83.07 50.2933 82.334 50.976 81.374 51.488C80.4353 52 79.3367 52.256 78.078 52.256C76.606 52.256 75.2727 51.8827 74.078 51.136C72.8833 50.368 71.934 49.2907 71.23 47.904C70.5473 46.496 70.206 44.8747 70.206 43.04ZM83.582 43.072C83.582 41.7067 83.198 40.6293 82.43 39.84C81.6833 39.0507 80.766 38.656 79.678 38.656C78.59 38.656 77.662 39.0507 76.894 39.84C76.1473 40.608 75.774 41.6747 75.774 43.04C75.774 44.4053 76.1473 45.4933 76.894 46.304C77.662 47.0933 78.59 47.488 79.678 47.488C80.766 47.488 81.6833 47.0933 82.43 46.304C83.198 45.5147 83.582 44.4373 83.582 43.072ZM111.125 42.784C111.125 43.296 111.093 43.8293 111.029 44.384H98.6447C98.7301 45.4933 99.0821 46.3467 99.7007 46.944C100.341 47.52 101.119 47.808 102.037 47.808C103.402 47.808 104.351 47.232 104.885 46.08H110.709C110.41 47.2533 109.866 48.3093 109.077 49.248C108.309 50.1867 107.338 50.9227 106.165 51.456C104.991 51.9893 103.679 52.256 102.229 52.256C100.479 52.256 98.9221 51.8827 97.5567 51.136C96.1914 50.3893 95.1247 49.3227 94.3567 47.936C93.5887 46.5493 93.2047 44.928 93.2047 43.072C93.2047 41.216 93.5781 39.5947 94.3247 38.208C95.0927 36.8213 96.1594 35.7547 97.5247 35.008C98.8901 34.2613 100.458 33.888 102.229 33.888C103.957 33.888 105.493 34.2507 106.837 34.976C108.181 35.7013 109.226 36.736 109.973 38.08C110.741 39.424 111.125 40.992 111.125 42.784ZM105.525 41.344C105.525 40.4053 105.205 39.6587 104.565 39.104C103.925 38.5493 103.125 38.272 102.165 38.272C101.247 38.272 100.469 38.5387 99.8287 39.072C99.2101 39.6053 98.8261 40.3627 98.6767 41.344H105.525ZM137.337 48.032H128.953L127.609 52H121.881L130.009 29.536H136.345L144.473 52H138.681L137.337 48.032ZM135.929 43.808L133.145 35.584L130.393 43.808H135.929ZM147.139 43.072C147.139 41.216 147.512 39.5947 148.259 38.208C149.027 36.8213 150.083 35.7547 151.427 35.008C152.792 34.2613 154.349 33.888 156.099 33.888C158.339 33.888 160.205 34.4747 161.699 35.648C163.213 36.8213 164.205 38.4747 164.675 40.608H158.851C158.36 39.2427 157.411 38.56 156.003 38.56C155 38.56 154.2 38.9547 153.603 39.744C153.005 40.512 152.707 41.6213 152.707 43.072C152.707 44.5227 153.005 45.6427 153.603 46.432C154.2 47.2 155 47.584 156.003 47.584C157.411 47.584 158.36 46.9013 158.851 45.536H164.675C164.205 47.6267 163.213 49.2693 161.699 50.464C160.184 51.6587 158.317 52.256 156.099 52.256C154.349 52.256 152.792 51.8827 151.427 51.136C150.083 50.3893 149.027 49.3227 148.259 47.936C147.512 46.5493 147.139 44.928 147.139 43.072ZM167.794 43.04C167.794 41.2053 168.135 39.5947 168.818 38.208C169.522 36.8213 170.471 35.7547 171.666 35.008C172.86 34.2613 174.194 33.888 175.666 33.888C176.924 33.888 178.023 34.144 178.962 34.656C179.922 35.168 180.658 35.84 181.17 36.672V34.144H186.642V52H181.17V49.472C180.636 50.304 179.89 50.976 178.93 51.488C177.991 52 176.892 52.256 175.634 52.256C174.183 52.256 172.86 51.8827 171.666 51.136C170.471 50.368 169.522 49.2907 168.818 47.904C168.135 46.496 167.794 44.8747 167.794 43.04ZM181.17 43.072C181.17 41.7067 180.786 40.6293 180.018 39.84C179.271 39.0507 178.354 38.656 177.266 38.656C176.178 38.656 175.25 39.0507 174.482 39.84C173.735 40.608 173.362 41.6747 173.362 43.04C173.362 44.4053 173.735 45.4933 174.482 46.304C175.25 47.0933 176.178 47.488 177.266 47.488C178.354 47.488 179.271 47.0933 180.018 46.304C180.786 45.5147 181.17 44.4373 181.17 43.072ZM190.792 43.04C190.792 41.2053 191.134 39.5947 191.816 38.208C192.52 36.8213 193.47 35.7547 194.664 35.008C195.859 34.2613 197.192 33.888 198.664 33.888C199.838 33.888 200.904 34.1333 201.864 34.624C202.846 35.1147 203.614 35.776 204.168 36.608V28.32H209.64V52H204.168V49.44C203.656 50.2933 202.92 50.976 201.96 51.488C201.022 52 199.923 52.256 198.664 52.256C197.192 52.256 195.859 51.8827 194.664 51.136C193.47 50.368 192.52 49.2907 191.816 47.904C191.134 46.496 190.792 44.8747 190.792 43.04ZM204.168 43.072C204.168 41.7067 203.784 40.6293 203.016 39.84C202.27 39.0507 201.352 38.656 200.264 38.656C199.176 38.656 198.248 39.0507 197.48 39.84C196.734 40.608 196.36 41.6747 196.36 43.04C196.36 44.4053 196.734 45.4933 197.48 46.304C198.248 47.0933 199.176 47.488 200.264 47.488C201.352 47.488 202.27 47.0933 203.016 46.304C203.784 45.5147 204.168 44.4373 204.168 43.072ZM231.711 42.784C231.711 43.296 231.679 43.8293 231.615 44.384H219.231C219.316 45.4933 219.668 46.3467 220.287 46.944C220.927 47.52 221.706 47.808 222.623 47.808C223.988 47.808 224.938 47.232 225.471 46.08H231.295C230.996 47.2533 230.452 48.3093 229.663 49.248C228.895 50.1867 227.924 50.9227 226.751 51.456C225.578 51.9893 224.266 52.256 222.815 52.256C221.066 52.256 219.508 51.8827 218.143 51.136C216.778 50.3893 215.711 49.3227 214.943 47.936C214.175 46.5493 213.791 44.928 213.791 43.072C213.791 41.216 214.164 39.5947 214.911 38.208C215.679 36.8213 216.746 35.7547 218.111 35.008C219.476 34.2613 221.044 33.888 222.815 33.888C224.543 33.888 226.079 34.2507 227.423 34.976C228.767 35.7013 229.812 36.736 230.559 38.08C231.327 39.424 231.711 40.992 231.711 42.784ZM226.111 41.344C226.111 40.4053 225.791 39.6587 225.151 39.104C224.511 38.5493 223.711 38.272 222.751 38.272C221.834 38.272 221.055 38.5387 220.415 39.072C219.796 39.6053 219.412 40.3627 219.263 41.344H226.111ZM258.662 33.952C260.88 33.952 262.64 34.624 263.942 35.968C265.264 37.312 265.926 39.1787 265.926 41.568V52H260.486V42.304C260.486 41.152 260.176 40.2667 259.558 39.648C258.96 39.008 258.128 38.688 257.062 38.688C255.995 38.688 255.152 39.008 254.534 39.648C253.936 40.2667 253.638 41.152 253.638 42.304V52H248.198V42.304C248.198 41.152 247.888 40.2667 247.27 39.648C246.672 39.008 245.84 38.688 244.774 38.688C243.707 38.688 242.864 39.008 242.246 39.648C241.648 40.2667 241.35 41.152 241.35 42.304V52H235.878V34.144H241.35V36.384C241.904 35.6373 242.63 35.0507 243.526 34.624C244.422 34.176 245.435 33.952 246.566 33.952C247.91 33.952 249.104 34.24 250.15 34.816C251.216 35.392 252.048 36.2133 252.646 37.28C253.264 36.2987 254.107 35.4987 255.174 34.88C256.24 34.2613 257.403 33.952 258.662 33.952ZM289.273 34.144L278.073 60.48H272.185L276.281 51.392L269.017 34.144H275.129L279.257 45.312L283.353 34.144H289.273Z" fill="white"/>
</svg>
